<svg width="1190" height="206" viewBox="0 0 1190 206" version="1.1" xmlns="http://www.w3.org/2000/svg"><title>clouds</title><g stroke="none" stroke-width="1" fill="none" fill-rule="evenodd"><g fill="#FFF" opacity=".2"><g><g><g><path d="M582.905 204.677l-67.766.044S513 197.16 513 192.776c0-20.672 16.766-37.43 37.447-37.43 5.435 0 10.6 1.158 15.262 3.24a27.538 27.538 0 0 1-.006-.576c0-39.77 32.289-72.01 72.12-72.01 39.83 0 72.119 32.24 72.119 72.01 0 3.548-.681 7.522-1.777 11.619a25.152 25.152 0 0 1 4.55-.413c13.788 0 24.965 11.164 24.965 24.937 0 3.992-2.609 11.11-2.609 11.11l-42.838.012h-1.867l-.003-.009-107.434-.55-.024-.039M933.458 47.01l-28.557.019S904 43.842 904 41.995c0-8.71 7.065-15.772 15.78-15.772 2.29 0 4.467.487 6.431 1.365a11.6 11.6 0 0 1-.002-.243C926.209 10.585 939.815-3 956.6-3c16.785 0 30.391 13.586 30.391 30.345 0 1.495-.287 3.17-.749 4.896a10.599 10.599 0 0 1 1.918-.174c5.81 0 10.52 4.705 10.52 10.508 0 1.683-1.1 4.682-1.1 4.682l-18.051.006h-.787l-.002-.004-45.272-.232-.01-.017M345.888 100.857l37.605.024s1.187-4.196 1.187-6.629c0-11.47-9.304-20.77-20.78-20.77-3.016 0-5.883.642-8.47 1.798.003-.108.004-.214.004-.32 0-22.07-17.918-39.96-40.02-39.96-22.103 0-40.021 17.89-40.021 39.96 0 1.969.378 4.174.985 6.448-.818-.15-1.662-.23-2.525-.23-7.65 0-13.853 6.196-13.853 13.838 0 2.216 1.448 6.166 1.448 6.166l23.771.007h1.037l.002-.005 59.617-.306.013-.021M1141.554 142.703l46.653.03s1.473-5.206 1.473-8.224c0-14.23-11.542-25.768-25.78-25.768a25.7 25.7 0 0 0-10.507 2.23c.003-.132.004-.265.004-.396 0-27.38-22.23-49.575-49.65-49.575-27.421 0-49.65 22.195-49.65 49.575 0 2.442.468 5.178 1.222 7.999a17.316 17.316 0 0 0-3.132-.284c-9.492 0-17.187 7.686-17.187 17.167 0 2.749 1.796 7.65 1.796 7.65l29.492.008h1.285l.003-.007 73.962-.378.016-.027M26.347 55.728l-25.54.017S0 52.895 0 51.243c0-7.791 6.319-14.107 14.113-14.107 2.049 0 3.996.436 5.752 1.221a10.379 10.379 0 0 1-.002-.217c0-14.99 12.17-27.14 27.181-27.14 15.012 0 27.182 12.15 27.182 27.14 0 1.337-.257 2.835-.67 4.379a9.48 9.48 0 0 1 1.715-.156c5.197 0 9.409 4.208 9.409 9.399 0 1.504-.983 4.187-.983 4.187l-16.146.005H66.848l-.002-.004-40.49-.207-.01-.015"/></g></g></g></g></g></svg>