<svg width="131" height="33" viewBox="0 0 131 33" version="1.1" xmlns="http://www.w3.org/2000/svg"><title>logo</title><g stroke="none" stroke-width="1" fill="none" fill-rule="evenodd"><g fill="#FFF"><g><g><path d="M30.81 14.209v.166c0 1.496-.083 2.576-.25 2.991-.249.665-.58 1.163-1.079 1.496-.498.332-1.08.498-1.827.498-.747 0-1.329-.166-1.827-.498-.498-.333-.83-.831-1.08-1.496-.249-.581-.332-1.579-.332-3.074V5.816h-4.318v8.559c.083 1.994.25 3.407.498 4.238.498 1.495 1.329 2.658 2.492 3.49 1.162.83 2.657 1.246 4.567 1.246 1.744 0 3.156-.333 4.318-1.08 1.163-.748 1.993-1.745 2.575-3.075.415-.914.664-2.576.664-4.82V5.817H30.81v8.393zM18.02 0h-4.318v6.73c-.083-.083-.166-.083-.249-.166a8.779 8.779 0 0 0-4.567-1.246c-2.242 0-4.235.748-5.98 2.326C.914 9.39 0 11.633 0 14.292c0 2.493.83 4.653 2.574 6.398 1.744 1.745 3.82 2.659 6.312 2.659 1.66 0 3.239-.416 4.567-1.164a9.105 9.105 0 0 0 3.322-3.323c.664-1.247 1.08-2.576 1.163-3.905V0h.083zm-5.646 18.03c-.914.915-1.993 1.413-3.405 1.413-1.329 0-2.491-.498-3.322-1.412-.913-.914-1.329-2.16-1.329-3.656 0-1.413.416-2.66 1.33-3.573.913-.914 1.992-1.413 3.32-1.413 1.33 0 2.492.499 3.406 1.413.913.914 1.328 2.077 1.328 3.573s-.415 2.742-1.328 3.656zM53.48 9.889a9.105 9.105 0 0 0-3.322-3.324 8.779 8.779 0 0 0-4.567-1.246c-2.242 0-4.236.748-5.98 2.326-1.993 1.745-2.906 3.989-2.906 6.648 0 2.493.83 4.653 2.574 6.398 1.744 1.745 3.82 2.659 6.312 2.659 1.66 0 3.239-.416 4.567-1.164a9.105 9.105 0 0 0 3.322-3.323 8.791 8.791 0 0 0 1.246-4.57 10.67 10.67 0 0 0-1.246-4.404zm-4.484 8.143c-.914.914-1.993 1.412-3.405 1.412-1.329 0-2.492-.498-3.322-1.412-.914-.914-1.329-2.16-1.329-3.656 0-1.413.415-2.66 1.329-3.573.913-.914 1.993-1.413 3.322-1.413s2.491.499 3.405 1.413c.913.914 1.328 2.077 1.328 3.573s-.415 2.742-1.328 3.656zM69.675 23.1h4.318V6.48h-4.318V23.1zM62.2 18.613c-.498-.333-.914-.831-1.08-1.496-.166-.499-.249-1.496-.249-2.991V0h-4.318v14.126c.083 2.326.249 3.905.664 4.819.581 1.33 1.412 2.41 2.575 3.074 1.162.748 2.574 1.08 4.318 1.08h3.322v-3.988H64.11c-.748 0-1.412-.166-1.91-.498zm28.816-8.891c-.58-1.33-1.411-2.41-2.574-3.075-1.163-.747-2.574-1.08-4.318-1.08-1.91 0-3.405.416-4.568 1.247-1.162.83-1.993 1.994-2.491 3.49-.25.83-.415 2.243-.498 4.237V23.1h4.318V14.54c0-1.413.083-2.493.332-3.074.25-.665.581-1.08 1.08-1.496.498-.332 1.08-.499 1.827-.499.747 0 1.328.167 1.827.499.498.332.83.83 1.08 1.496.165.498.248 1.495.248 2.991v8.558H91.6v-8.642c.083-2.076-.166-3.738-.582-4.652zM71.751.332a2.322 2.322 0 0 0-2.325 2.327c0 1.246.996 2.327 2.325 2.327a2.322 2.322 0 0 0 2.325-2.327c-.083-1.33-1.08-2.327-2.325-2.327zm57.633 9.722a9.105 9.105 0 0 0-3.321-3.324c-1.412-.83-2.907-1.163-4.568-1.163-2.491 0-4.567.914-6.311 2.66-1.744 1.744-2.575 3.904-2.575 6.397 0 2.66.997 4.903 2.99 6.647 1.744 1.58 3.737 2.327 5.98 2.327a8.997 8.997 0 0 0 4.567-1.246 9.105 9.105 0 0 0 3.321-3.324c.83-1.413 1.163-2.908 1.163-4.487 0-1.579-.415-3.074-1.246-4.487zm-3.155 4.487c0 1.496-.416 2.659-1.33 3.573-.913.914-1.992 1.413-3.404 1.413-1.329 0-2.491-.499-3.322-1.413-.913-.914-1.328-2.077-1.328-3.573s.415-2.742 1.328-3.656c.914-.914 1.993-1.413 3.322-1.413s2.491.499 3.405 1.413c.913.997 1.412 2.243 1.329 3.656zm-15.115-.665c-.083-1.412-.498-2.659-1.162-3.905-.83-1.413-1.91-2.493-3.239-3.24-1.412-.748-2.907-1.164-4.567-1.164-2.409 0-4.485.831-6.229 2.576-1.744 1.745-2.574 3.822-2.574 6.315 0 2.659.996 4.82 2.906 6.647 1.744 1.579 3.654 2.327 5.897 2.327 1.577 0 3.072-.416 4.484-1.163.083-.084.166-.084.25-.167v1.912c0 1.412-.5 2.658-1.33 3.572-.83.914-1.993 1.33-3.321 1.33-1.33 0-2.409-.416-3.24-1.33l-2.74 2.992.083.083c1.744 1.579 3.654 2.326 5.897 2.326 1.577 0 3.072-.415 4.484-1.163a9.553 9.553 0 0 0 3.322-3.24c.83-1.413 1.162-2.826 1.162-4.487V14.458c-.083-.166-.083-.415-.083-.582zm-4.318.582c0 1.413-.415 2.659-1.329 3.573-.913.914-1.993 1.33-3.321 1.33-1.33 0-2.409-.5-3.322-1.413-.914-.914-1.329-2.077-1.329-3.49 0-1.496.415-2.659 1.329-3.573.83-.914 1.993-1.413 3.322-1.413 1.328 0 2.408.499 3.321 1.413.914.914 1.329 2.077 1.329 3.573z"/></g></g></g></g></svg>